<svg xmlns="http://www.w3.org/2000/svg" viewBox="0 0 407.67 419.76">
  <svg x="54.6" y="0" width="248.8" height="287.8" viewBox="0 0 380.44 440.07">
  <!-- Generator: Adobe Illustrator 30.6.0, SVG Export Plug-In . SVG Version: 2.1.4 Build 109)  -->
  <defs>
    <style>
      .st0 {
        fill: #fff;
      }

      .st1 {
        fill: #28b56a;
      }
    </style>
  </defs>
  <path class="st1" d="M50.95,309.74l-15.5,34.2,24.51-24.06-9.01-10.15h0Z"/>
  <path class="st1" d="M160.52,78.27c-78.15,0-141.73,63.59-141.73,141.74,0,38.94,15.79,74.26,41.3,99.91l45.61-45.38c-13.92-14-22.54-33.27-22.54-54.53,0-42.66,34.7-77.36,77.36-77.36s77.36,34.7,77.36,77.36-34.7,77.36-77.36,77.36c-17.41,0-33.49-5.78-46.43-15.52l-38.64,51.46c23.71,17.85,53.17,28.44,85.07,28.44h0c78.15,0,141.73-63.59,141.73-141.74s-63.58-141.73-141.73-141.73Z"/>
  <path class="st0" d="M322.79,71.51C243.46-15.29,110.59-23.91,21.16,50.24h0l-.04.03c-2.97,2.46-5.89,5.01-8.76,7.65L0,69.5l98.09,104.87,20.9-19.65L40.79,71.2c67.51-54.95,164.29-57.05,234.57-4.25,84.5,63.48,101.57,183.47,38.12,268-58.11,77.42-163.57,98.24-245.82,52.46l.07-.02,92.81-167.38-114.92,153.1s-.03-.02-.04-.03l-17.19,22.91s.02,0,.03.02l-.04.05.08-.02c84.6,63.49,202.39,57.77,280.44-13.63,89.66-82.01,95.88-221.21,13.89-310.9h0Z"/>
  <path class="st0" d="M160.52,142.65c-42.66,0-77.36,34.7-77.36,77.36,0,21.26,8.62,40.53,22.54,54.53l20.3-20.2c-8.76-8.81-14.19-20.95-14.19-34.33,0-26.86,21.85-48.71,48.71-48.71s48.71,21.85,48.71,48.71-21.85,48.71-48.71,48.71c-10.96,0-21.09-3.64-29.23-9.77l-17.2,22.9c12.94,9.74,29.02,15.52,46.43,15.52,42.66,0,77.36-34.7,77.36-77.36s-34.7-77.36-77.36-77.36Z"/>
</svg>
  <svg x="0" y="340" width="357.98" height="79.9" viewBox="0 0 471.36 105.15">
  <defs>
    <style>
      .cls-1 {
        fill: #03a04a;
      }

      .cls-2 {
        fill: #fff;
      }
    </style>
  </defs>
  <path class="cls-2" d="M15.02,84.88L15.02,73.99Q15.02,72.74 15.84,71.99Q16.65,71.23 17.78,71.23L27.92,71.23Q35.43,71.23 41.69,67.54Q47.95,63.85 51.64,57.59Q55.33,51.33 55.33,43.82Q55.33,36.30 51.64,30.04Q47.95,23.78 41.69,20.09Q35.43,16.40 27.92,16.40L17.78,16.40Q17.15,16.40 16.71,16.83Q16.27,17.27 16.27,17.90L16.27,25.54Q16.27,26.66 15.46,27.41Q14.65,28.16 13.52,28.16L2.63,28.16Q1.63,28.16 0.81,27.35Q0.00,26.54 0.00,25.54L0.00,2.87Q0.00,1.75 0.81,0.93Q1.63,0.12 2.63,0.12L27.92,0.12Q39.81,0.12 49.83,6.00Q59.84,11.89 65.73,21.90Q71.61,31.92 71.61,43.82Q71.61,55.71 65.73,65.73Q59.84,75.74 49.83,81.63Q39.81,87.51 27.92,87.51L17.78,87.51Q16.65,87.51 15.84,86.76Q15.02,86.01 15.02,84.88Z"/>
  <path class="cls-2" d="M100.15,83.44L100.15,18.28Q100.15,17.03 99.27,16.21Q98.40,15.40 97.14,15.40L90.01,15.40Q89.38,15.40 88.88,14.90Q88.38,14.40 88.38,13.65L88.38,2.00Q88.38,1.25 88.88,0.75Q89.38,0.25 90.01,0.25L144.72,0.25Q145.35,0.25 145.85,0.75Q146.35,1.25 146.35,2.00L146.35,13.65Q146.35,14.40 145.85,14.90Q145.35,15.40 144.72,15.40L121.31,15.40Q120.06,15.40 119.18,16.27Q118.30,17.15 118.30,18.28L118.30,85.88Q118.30,86.63 117.80,87.07Q117.30,87.51 116.68,87.51L104.22,87.51Q100.15,87.51 100.15,83.44Z"/>
  <path class="cls-2" d="M168.01,85.52L168.01,41.82Q168.01,40.82 168.70,40.13Q169.39,39.44 170.39,39.44L196.31,39.44Q201.32,39.44 204.76,36.06Q208.21,32.68 208.21,27.92Q208.21,23.04 204.76,19.66Q201.32,16.28 196.31,16.28L185.79,16.28Q184.42,16.28 183.48,17.22Q182.54,18.15 182.54,19.41L182.54,22.54Q182.54,23.79 181.66,24.73Q180.78,25.67 179.41,25.67L171.14,25.67Q169.89,25.67 168.95,24.73Q168.01,23.79 168.01,22.54L168.01,2.38Q168.01,1.38 168.70,0.69Q169.39,0.00 170.39,0.00L196.31,0.00Q204.08,0.00 210.59,3.76Q217.10,7.51 220.92,13.90Q224.74,20.28 224.74,27.92Q224.74,34.43 221.80,40.19Q218.85,45.95 213.72,49.83Q212.97,50.33 212.97,51.08Q212.97,51.84 213.09,52.34L227.62,84.77Q228.12,85.64 228.12,86.39Q228.12,87.77 226.37,87.77L216.10,87.77Q214.72,87.77 214.03,87.52Q213.34,87.27 212.84,86.27L199.82,56.97Q199.44,56.22 198.82,55.97Q198.19,55.72 196.31,55.72L185.67,55.72Q184.16,55.72 183.35,56.16Q182.54,56.59 182.54,57.97L182.54,85.52Q182.54,86.52 181.85,87.14Q181.16,87.77 180.16,87.77L170.39,87.77Q169.39,87.77 168.70,87.14Q168.01,86.52 168.01,85.52Z"/>
  <path class="cls-1" d="M246.76,13.14L246.76,2.37Q246.76,1.37 247.45,0.75Q248.14,0.12 249.01,0.12L307.12,0.12Q308.12,0.12 308.81,0.81Q309.49,1.50 309.49,2.37L309.49,13.14Q309.49,14.02 308.81,14.77Q308.12,15.52 307.12,15.52L249.01,15.52Q248.14,15.52 247.45,14.83Q246.76,14.15 246.76,13.14ZM246.76,85.53L246.76,27.67Q246.76,26.67 247.45,26.04Q248.14,25.42 249.01,25.42L259.66,25.42Q260.66,25.42 261.29,26.04Q261.91,26.67 261.91,27.67L261.91,33.94Q261.91,39.07 268.93,39.07L296.72,39.07Q297.60,39.07 298.23,39.63Q298.85,40.19 298.85,41.07L298.85,51.84Q298.85,52.72 298.23,53.28Q297.60,53.84 296.72,53.84L269.11,53.84Q261.91,53.84 261.91,60.42L261.91,70.12Q261.91,71.00 262.66,71.75Q263.41,72.50 264.29,72.50L307.37,72.50Q308.37,72.50 308.99,73.13Q309.62,73.75 309.62,74.76L309.62,85.53Q309.62,86.40 308.99,87.09Q308.37,87.78 307.37,87.78L249.01,87.78Q248.14,87.78 247.45,87.09Q246.76,86.40 246.76,85.53Z"/>
  <path class="cls-1" d="M392.43,32.16l-24.02,26.23,27.05,29.37h-18.41l-17.8-19.39-17.8,19.39h-18.47l27-29.47-23.92-26.13h18.31l14.76,16.1,14.86-16.1h18.41Z"/>
  <path class="cls-1" d="M471.36,68.99c0,2.3-.29,4.36-.87,6.2-.58,1.83-1.36,3.45-2.31,4.83-.96,1.39-2.08,2.57-3.34,3.55-1.27.98-2.6,1.77-3.99,2.39s-2.79,1.07-4.19,1.36c-1.41.29-2.74.44-4.01.44h-24.12v-13.37h24.12c1.78,0,3.12-.46,4.01-1.39.89-.93,1.34-2.26,1.34-4.01v-18c0-1.85-.46-3.22-1.36-4.11-.91-.89-2.24-1.34-3.99-1.34h-24.02c-1.82,0-3.19.46-4.11,1.36-.93.91-1.39,2.24-1.39,3.99v54.26h-13.37v-54.26c0-2.3.29-4.35.87-6.17.58-1.82,1.36-3.42,2.34-4.81s2.1-2.57,3.37-3.55c1.27-.98,2.6-1.77,3.99-2.39s2.79-1.07,4.22-1.36c1.42-.29,2.75-.44,3.99-.44h24.12c2.3,0,4.35.29,6.17.87,1.82.58,3.42,1.36,4.81,2.31,1.39.96,2.57,2.08,3.55,3.34.98,1.27,1.77,2.6,2.39,3.99s1.07,2.79,1.36,4.19c.29,1.41.44,2.74.44,4.01v18.11Z"/>
</svg>
  <g id="badge">
    <rect x="308.28" y="233.50" width="99.39" height="99.39" rx="49.69" ry="49.69" fill="#3572A5"/>
    <g>
      <path fill="#ffffff" d="M324.975 302.1377274692025V264.3093289388372Q324.975 263.8528776745191 325.2888102442188 263.56759563432024Q325.6026204884375 263.28231359412143 326.00201534471586 263.28231359412143H339.2961584179815Q342.71954290036746 263.28231359412143 345.62941971039555 264.96547763129456Q348.53929652042365 266.6486416684677 350.2224605575967 269.5585184784958Q351.90562459476985 272.4683952885239 351.90562459476985 275.89177977090986Q351.90562459476985 279.37222066133563 350.2224605575967 282.25356926734383Q348.53929652042365 285.13491787335204 345.65794791441544 286.81808191052517Q342.7765993084072 288.5012459476983 339.2961584179815 288.5012459476983H333.5905176140048Q332.9058407175276 288.5012459476983 332.5349740652691 288.75799978387727Q332.16410741301064 289.0147536200562 332.16410741301064 289.6423741084936V302.1377274692025Q332.16410741301064 302.5371223254808 331.8788253728118 302.8509325696996Q331.59354333261297 303.1647428139183 331.1370920682948 303.1647428139183H326.00201534471586Q325.6026204884375 303.1647428139183 325.2888102442188 302.8509325696996Q324.975 302.5371223254808 324.975 302.1377274692025ZM339.2961584179815 281.19802571860816Q341.4643019234926 281.19802571860816 343.03335314458616 279.65750270153444Q344.6024043656797 278.1169796844608 344.6024043656797 275.89177977090986Q344.6024043656797 273.72363626539874 343.03335314458616 272.18311324832507Q341.4643019234926 270.64259023125135 339.2961584179815 270.64259023125135H333.533461205965Q332.16410741301064 270.64259023125135 332.16410741301064 271.78371839204664V281.19802571860816Z"/>
      <path fill="#ffffff" d="M371.6471417765291 302.0806710611627V292.49519451048195V288.5012459476983Q371.6471417765291 287.30306137886316 371.07657769613144 286.0478204019883Q370.27778798357474 284.6784666090339 363.3169062027232 270.98492867948994L359.8935217203372 264.3093289388372Q359.77940890425765 264.0811033066782 359.77940890425765 263.9099340825589Q359.77940890425765 263.22525718608165 360.6352550248542 263.22525718608165H366.5120650529501Q367.0826291333478 263.22525718608165 367.3393829695267 263.42495461422084Q367.59613680570567 263.62465204236 367.82436243786475 264.0811033066782L375.35580829911396 279.65750270153444L383.0013669764427 263.9099340825589Q383.172536200562 263.62465204236 383.37223362870117 263.42495461422084Q383.57193105684036 263.22525718608165 384.08543872919824 263.22525718608165H390.07636157337373Q391.2745461422088 263.22525718608165 390.8751512859305 264.1381597147179Q389.16345904473746 267.50448778906417 385.4262643181328 274.8077080181543Q381.68906959152804 282.11092824724443 379.6350389020964 286.0478204019883Q379.06447482169875 287.0748357467041 379.007418413659 288.5012459476983V302.0806710611627Q379.007418413659 302.4800659174411 378.7221363734602 302.7938761616598Q378.43685433326135 303.1076864058785 377.9804030689432 303.1076864058785H372.67415712124495Q372.27476226496657 303.1076864058785 371.96095202074787 302.7938761616598Q371.6471417765291 302.4800659174411 371.6471417765291 302.0806710611627Z"/>
    </g>
  </g>
</svg>