<?xml version="1.0" encoding="UTF-8"?>
<svg xmlns="http://www.w3.org/2000/svg" viewBox="0 0 407.67 422.16">
  <defs>
    <style>
      .cls-1 {
        fill: #29b56b;
      }

      .cls-2 {
        fill: #3572A5;
      }

      .cls-3 {
        fill: #010101;
      }

      .cls-4 {
        fill: #231f20;
      }

      .cls-5 {
        fill: #03a04a;
      }

      .cls-6 {
        fill: #fff;
      }
    </style>
  </defs>
  <g id="Layer_3" data-name="Layer 3">
    <g>
      <path class="cls-4" d="M11.41,406.79L11.41,398.52Q11.41,397.57 12.03,397.00Q12.65,396.43 13.50,396.43L21.21,396.43Q26.91,396.43 31.67,393.62Q36.43,390.82 39.23,386.06Q42.04,381.31 42.04,375.60Q42.04,369.89 39.23,365.14Q36.43,360.38 31.67,357.58Q26.91,354.77 21.21,354.77L13.50,354.77Q13.03,354.77 12.70,355.11Q12.36,355.44 12.36,355.91L12.36,361.72Q12.36,362.57 11.75,363.14Q11.13,363.71 10.27,363.71L2.00,363.71Q1.24,363.71 0.62,363.09Q0.00,362.48 0.00,361.72L0.00,344.50Q0.00,343.65 0.62,343.03Q1.24,342.41 2.00,342.41L21.21,342.41Q30.24,342.41 37.85,346.88Q45.46,351.35 49.93,358.96Q54.40,366.57 54.40,375.60Q54.40,384.63 49.93,392.24Q45.46,399.85 37.85,404.32Q30.24,408.79 21.21,408.79L13.50,408.79Q12.65,408.79 12.03,408.22Q11.41,407.65 11.41,406.79Z"/>
      <path class="cls-4" d="M76.06,405.67L76.06,356.19Q76.06,355.24 75.39,354.62Q74.73,354.00 73.78,354.00L68.36,354.00Q67.88,354.00 67.50,353.62Q67.12,353.24 67.12,352.67L67.12,343.83Q67.12,343.26 67.50,342.88Q67.88,342.50 68.36,342.50L109.91,342.50Q110.39,342.50 110.77,342.88Q111.15,343.26 111.15,343.83L111.15,352.67Q111.15,353.24 110.77,353.62Q110.39,354.00 109.91,354.00L92.13,354.00Q91.18,354.00 90.51,354.67Q89.85,355.33 89.85,356.19L89.85,407.52Q89.85,408.09 89.47,408.43Q89.09,408.76 88.61,408.76L79.15,408.76Q76.06,408.76 76.06,405.67Z"/>
      <path class="cls-4" d="M127.59,407.26L127.59,374.07Q127.59,373.30 128.11,372.78Q128.64,372.26 129.40,372.26L149.08,372.26Q152.88,372.26 155.50,369.69Q158.11,367.12 158.11,363.51Q158.11,359.80 155.50,357.23Q152.88,354.66 149.08,354.66L141.09,354.66Q140.05,354.66 139.33,355.38Q138.62,356.09 138.62,357.04L138.62,359.42Q138.62,360.37 137.95,361.08Q137.29,361.80 136.24,361.80L129.97,361.80Q129.02,361.80 128.30,361.08Q127.59,360.37 127.59,359.42L127.59,344.11Q127.59,343.35 128.11,342.82Q128.64,342.30 129.40,342.30L149.08,342.30Q154.97,342.30 159.92,345.15Q164.86,348.01 167.76,352.86Q170.66,357.71 170.66,363.51Q170.66,368.45 168.43,372.83Q166.19,377.20 162.30,380.15Q161.72,380.53 161.72,381.10Q161.72,381.67 161.82,382.05L172.85,406.69Q173.23,407.35 173.23,407.92Q173.23,408.97 171.90,408.97L164.10,408.97Q163.06,408.97 162.53,408.78Q162.01,408.59 161.63,407.83L151.74,385.57Q151.46,385.00 150.98,384.81Q150.51,384.62 149.08,384.62L141.00,384.62Q139.86,384.62 139.24,384.96Q138.62,385.29 138.62,386.33L138.62,407.26Q138.62,408.02 138.10,408.49Q137.57,408.97 136.81,408.97L129.40,408.97Q128.64,408.97 128.11,408.49Q127.59,408.02 127.59,407.26Z"/>
      <path class="cls-5" d="M187.41,352.28L187.41,344.10Q187.41,343.34 187.93,342.87Q188.46,342.39 189.12,342.39L233.25,342.39Q234.01,342.39 234.53,342.91Q235.05,343.44 235.05,344.10L235.05,352.28Q235.05,352.95 234.53,353.52Q234.01,354.09 233.25,354.09L189.12,354.09Q188.46,354.09 187.93,353.57Q187.41,353.04 187.41,352.28ZM187.41,407.26L187.41,363.32Q187.41,362.55 187.93,362.08Q188.46,361.60 189.12,361.60L197.21,361.60Q197.97,361.60 198.44,362.08Q198.92,362.55 198.92,363.32L198.92,368.08Q198.92,371.97 204.25,371.97L225.35,371.97Q226.02,371.97 226.50,372.40Q226.97,372.83 226.97,373.49L226.97,381.67Q226.97,382.34 226.50,382.77Q226.02,383.19 225.35,383.19L204.39,383.19Q198.92,383.19 198.92,388.19L198.92,395.56Q198.92,396.22 199.49,396.80Q200.06,397.37 200.72,397.37L233.44,397.37Q234.20,397.37 234.67,397.84Q235.15,398.32 235.15,399.08L235.15,407.26Q235.15,407.92 234.67,408.45Q234.20,408.97 233.44,408.97L189.12,408.97Q188.46,408.97 187.93,408.45Q187.41,407.92 187.41,407.26Z"/>
      <path class="cls-5" d="M298.03,366.73l-18.24,19.92,20.55,22.3h-13.98l-13.52-14.73-13.52,14.73h-14.02l20.51-22.38-18.16-19.84h13.91l11.21,12.23,11.29-12.23h13.98Z"/>
      <path class="cls-5" d="M357.98,394.7c0,1.75-.22,3.31-.66,4.71-.44,1.39-1.03,2.62-1.76,3.67-.73,1.05-1.58,1.95-2.54,2.7-.96.74-1.97,1.35-3.03,1.82s-2.12.81-3.18,1.04c-1.07.22-2.08.33-3.05.33h-18.32v-10.16h18.32c1.35,0,2.37-.35,3.05-1.05.68-.7,1.02-1.72,1.02-3.05v-13.67c0-1.41-.35-2.45-1.04-3.12-.69-.68-1.7-1.02-3.03-1.02h-18.24c-1.38,0-2.42.35-3.12,1.04-.7.69-1.05,1.7-1.05,3.03v41.21h-10.16v-41.21c0-1.74.22-3.31.66-4.69.44-1.38,1.04-2.6,1.78-3.65s1.59-1.95,2.56-2.7c.96-.74,1.97-1.35,3.03-1.82s2.12-.81,3.2-1.04c1.08-.22,2.09-.33,3.03-.33h18.32c1.74,0,3.31.22,4.69.66,1.38.44,2.6,1.03,3.65,1.76,1.05.73,1.95,1.58,2.7,2.54.74.96,1.35,1.97,1.82,3.03s.81,2.12,1.04,3.18c.22,1.07.33,2.08.33,3.05v13.75Z"/>
    </g>
  </g>
  <g id="Layer_2" data-name="Layer 2">
    <g>
      <path class="cls-1" d="M159.72,234.78c-50.72,0-91.99-41.27-91.99-91.99s41.27-91.99,91.99-91.99,91.99,41.27,91.99,91.99-41.27,91.99-91.99,91.99ZM159.72,92.58c-27.69,0-50.21,22.52-50.21,50.21s22.52,50.21,50.21,50.21,50.21-22.52,50.21-50.21-22.52-50.21-50.21-50.21Z"/>
      <path class="cls-1" d="M88.61,201.03l-10.06,22.2,15.91-15.61-5.85-6.59Z"/>
      <path class="cls-3" d="M159.72,193c-27.68,0-50.21-22.52-50.21-50.21s22.52-50.21,50.21-50.21,50.21,22.52,50.21,50.21-22.52,50.21-50.21,50.21ZM159.72,111.18c-17.43,0-31.61,14.18-31.61,31.61s14.18,31.61,31.61,31.61,31.61-14.18,31.61-31.61-14.18-31.61-31.61-31.61Z"/>
      <path class="cls-6" d="M159.72,142.79l-71.09,94.68-12.85-11.18,83.94-83.5Z"/>
      <path class="cls-3" d="M265.03,46.41C213.54-9.92,127.31-15.52,69.27,32.61h0s-.02.02-.02.02c-1.93,1.6-3.82,3.25-5.68,4.97l-8.03,7.51,63.66,68.06,13.56-12.75-50.76-54.21c43.81-35.66,106.63-37.03,152.24-2.76,54.84,41.2,65.92,119.07,24.74,173.94-37.71,50.24-106.16,63.76-159.54,34.04h.04s60.24-108.64,60.24-108.64l-74.58,99.36s-.02-.01-.02-.02l-11.15,14.87s0,0,.01.01l-.03.03h.05c54.9,41.19,131.35,37.48,182.01-8.86,58.19-53.23,62.22-143.56,9.02-201.77Z"/>
    </g>
  </g>
  <g id="Layer_4" data-name="Layer 4">
    <rect class="cls-2" x="308.28" y="235.91" width="99.39" height="99.39" rx="49.69" ry="49.69"/>
    <g>
      <path fill="#ffffff" d="M324.975 304.5477274692025V266.71932893883724Q324.975 266.26287767451913 325.2888102442188 265.9775956343203Q325.6026204884375 265.69231359412146 326.00201534471586 265.69231359412146H339.2961584179815Q342.71954290036746 265.69231359412146 345.62941971039555 267.37547763129453Q348.53929652042365 269.05864166846766 350.2224605575967 271.96851847849575Q351.90562459476985 274.8783952885239 351.90562459476985 278.3017797709099Q351.90562459476985 281.78222066133566 350.2224605575967 284.66356926734386Q348.53929652042365 287.54491787335206 345.65794791441544 289.2280819105252Q342.7765993084072 290.9112459476983 339.2961584179815 290.9112459476983H333.5905176140048Q332.9058407175276 290.9112459476983 332.5349740652691 291.16799978387724Q332.16410741301064 291.4247536200562 332.16410741301064 292.0523741084936V304.5477274692025Q332.16410741301064 304.94712232548085 331.8788253728118 305.26093256969955Q331.59354333261297 305.5747428139183 331.1370920682948 305.5747428139183H326.00201534471586Q325.6026204884375 305.5747428139183 325.2888102442188 305.26093256969955Q324.975 304.94712232548085 324.975 304.5477274692025ZM339.2961584179815 283.6080257186082Q341.4643019234926 283.6080257186082 343.03335314458616 282.0675027015345Q344.6024043656797 280.5269796844608 344.6024043656797 278.3017797709099Q344.6024043656797 276.13363626539876 343.03335314458616 274.59311324832504Q341.4643019234926 273.0525902312514 339.2961584179815 273.0525902312514H333.533461205965Q332.16410741301064 273.0525902312514 332.16410741301064 274.19371839204666V283.6080257186082Z"/>
      <path fill="#ffffff" d="M371.6471417765291 304.49067106116274V294.905194510482V290.9112459476983Q371.6471417765291 289.7130613788632 371.07657769613144 288.45782040198833Q370.27778798357474 287.08846660903396 363.3169062027232 273.39492867948996L359.8935217203372 266.71932893883724Q359.77940890425765 266.4911033066782 359.77940890425765 266.3199340825589Q359.77940890425765 265.6352571860817 360.6352550248542 265.6352571860817H366.5120650529501Q367.0826291333478 265.6352571860817 367.3393829695267 265.83495461422086Q367.59613680570567 266.03465204236005 367.82436243786475 266.4911033066782L375.35580829911396 282.06750270153447L383.0013669764427 266.3199340825589Q383.172536200562 266.03465204236005 383.37223362870117 265.83495461422086Q383.57193105684036 265.6352571860817 384.08543872919824 265.6352571860817H390.07636157337373Q391.2745461422088 265.6352571860817 390.8751512859305 266.54815971471794Q389.16345904473746 269.9144877890642 385.4262643181328 277.2177080181543Q381.68906959152804 284.52092824724446 379.6350389020964 288.45782040198833Q379.06447482169875 289.4848357467041 379.007418413659 290.9112459476983V304.49067106116274Q379.007418413659 304.8900659174411 378.7221363734602 305.2038761616598Q378.43685433326135 305.5176864058785 377.9804030689432 305.5176864058785H372.67415712124495Q372.27476226496657 305.5176864058785 371.96095202074787 305.2038761616598Q371.6471417765291 304.8900659174411 371.6471417765291 304.49067106116274Z"/>
    </g>
  </g>
</svg>